<svg width="25" height="25" viewBox="0 0 25 25" fill="none" xmlns="http://www.w3.org/2000/svg">
<g clip-path="url(#clip0_1_4214)">
<path d="M16.6665 11.4583C18.3957 11.4583 19.7811 10.0625 19.7811 8.33331C19.7811 6.60415 18.3957 5.20831 16.6665 5.20831C14.9373 5.20831 13.5415 6.60415 13.5415 8.33331C13.5415 10.0625 14.9373 11.4583 16.6665 11.4583ZM8.33317 11.4583C10.0623 11.4583 11.4478 10.0625 11.4478 8.33331C11.4478 6.60415 10.0623 5.20831 8.33317 5.20831C6.604 5.20831 5.20817 6.60415 5.20817 8.33331C5.20817 10.0625 6.604 11.4583 8.33317 11.4583ZM8.33317 13.5416C5.90609 13.5416 1.0415 14.7604 1.0415 17.1875V18.75C1.0415 19.3229 1.51025 19.7916 2.08317 19.7916H14.5832C15.1561 19.7916 15.6248 19.3229 15.6248 18.75V17.1875C15.6248 14.7604 10.7603 13.5416 8.33317 13.5416ZM16.6665 13.5416C16.3644 13.5416 16.0207 13.5625 15.6561 13.5937C15.6769 13.6041 15.6873 13.625 15.6978 13.6354C16.8853 14.5 17.7082 15.6562 17.7082 17.1875V18.75C17.7082 19.1146 17.6353 19.4687 17.5207 19.7916H22.9165C23.4894 19.7916 23.9582 19.3229 23.9582 18.75V17.1875C23.9582 14.7604 19.0936 13.5416 16.6665 13.5416Z" fill="#76808C"/>
</g>
<defs>
<clipPath id="clip0_1_4214">
<rect width="25" height="25" fill="white"/>
</clipPath>
</defs>
</svg>
